PathFileType	4	(X/Y/Z)	C:/Users/beibeiliu/ov580/test_trc/capture2\sequence.9_training_dense_left.trc
DataRate	CameraRate	NumFrames	NumMarkers	Units	OrigDataRate	OrigDataStartFrame	OrigNumFrames
120	120	24	19	mm	120	193	384
Frame#	Time	ThumbCMC			ThumbMCP			ThumbIP			ThumbTip			IndexMCP			IndexPIP			IndexTip			MiddleMCP			MiddlePIP			MiddleTip			RingMCP			RingPIP			RingTip			PinkyMCP			PinkyPIP			PinkyTip			BackHand1			BackHand2			BackHand3	
		X0	Y0	Z0	X1	Y1	Z1	X2	Y2	Z2	X3	Y3	Z3	X4	Y4	Z4	X5	Y5	Z5	X6	Y6	Z6	X7	Y7	Z7	X8	Y8	Z8	X9	Y9	Z9	X10	Y10	Z10	X11	Y11	Z11	X12	Y12	Z12	X13	Y13	Z13	X14	Y14	Z14	X15	Y15	Z15	X16	Y16	Z16	X17	Y17	Z17	X18	Y18	Z18	
192	1.6	-100.458	88.1684	-17.211	-81.2469	103.797	-24.9144	-67.2905	123.595	-32.2971	-48.3606	137.637	-33.819	-104.664	158.062	-51.7821	-104.467	175.285	-63.7038	-100.378	201.88	-73.6566	-123.458	161.206	-56.9839	-120.879	184.004	-70.897	-116.507	210.321	-81.2375	-142.341	158.308	-66.8905	-140.65	178.658	-76.9273	-134.73	203.318	-86.6794	-160.541	142.467	-68.2658	-155.7	161.443	-77.5668	-151.005	185.689	-84.7321	-156.308	118.329	-33.2601	-158.576	95.4875	-14.1697	-128.561	108.529	-15.5954	
193	1.60833	-101.242	89.7476	-16.6972	-84.4172	104.432	-29.8181	-67.0886	126.749	-35.5746	-49.8875	137.734	-34.7814	-105.964	160.885	-54.2237	-102.532	178.845	-66.0412	-106.849	203.047	-77.2477	-122.627	166.697	-60.6697	-121.513	185.337	-71.9648	-118.343	212.208	-84.2228	-144.304	160.268	-68.8689	-141.199	179.428	-78.2275	-140.527	200.946	-86.6095	-158.118	139.903	-67.9244	-158.363	160.895	-75.6875	-157.593	188.579	-76.3267	-157.57	122.299	-37.912	-164.143	99.7826	-16.1471	-127.783	112.194	-16.5354	
194	1.61667	-103.221	91.6324	-19.2523	-82.8549	104.997	-26.0778	-68.4734	122.277	-32.7026	-53.469	140.721	-35.5574	-108.195	158.107	-53.4002	-103.716	180.623	-65.9269	-104.711	199.675	-73.4229	-123.12	163.735	-58.0708	-121.155	187.084	-70.9363	-120.455	210.15	-82.2789	-144.881	155.509	-65.3964	-143.608	175.409	-76.0093	-139.504	203.974	-85.5806	-160.327	139.609	-66.9802	-154.524	163.019	-77.2842	-151.886	186.629	-82.5234	-158.298	118.629	-34.5971	-161.579	96.0161	-16.6113	-130.884	109.076	-14.8162	
195	1.625	-103.499	88.1861	-18.0432	-84.8411	102.558	-26.8056	-67.7082	125.173	-32.1926	-52.9163	136.514	-35.3504	-107.166	155.898	-51.5495	-104.886	180.659	-65.7368	-105.611	201.015	-75.299	-124.874	165.01	-58.7665	-124.668	183.109	-70.4878	-118.522	212.77	-84.0452	-146.467	155.715	-67.0961	-144.67	175.585	-77.1	-141.337	199.899	-85.9888	-158.983	142.049	-67.8692	-154.925	159.815	-75.5466	-149.397	186.3	-83.4764	-157.3	120.692	-34.2635	-160.296	99.5663	-17.6365	-130.238	113.643	-17.2404	
196	1.63333	-105.344	91.1366	-19.8108	-85.1889	103.089	-26.2167	-66.2892	123.028	-30.3841	-49.2601	141.537	-32.2308	-105.997	157.974	-52.7023	-105.472	177.048	-66.0013	-107.882	202.117	-77.1955	-125.861	163.356	-58.9913	-124.319	187.811	-73.9238	-116.692	214.686	-84.6013	-144.818	158.911	-66.7917	-139.171	180.103	-77.3721	-137.969	202.544	-87.0506	-157.971	142.243	-68.9728	-154.494	161.887	-78.0675	-152.7	186.131	-84.8822	-158.846	121.541	-35.3821	-163.204	100.487	-15.8566	-127.74	111.341	-15.0585	
197	1.64167	-102.311	91.1434	-16.688	-84.8918	101.877	-25.6194	-68.1012	125.008	-32.3884	-50.6031	138.443	-32.3946	-105.307	159.019	-53.3947	-104.567	179.921	-67.2715	-104.826	199.891	-76.0862	-127.286	163.1	-59.7888	-119.77	183.593	-71.4696	-116.52	213.114	-85.4885	-143.287	157.301	-66.3204	-139.557	176.5	-76.718	-141.117	200.679	-87.3528	-157.647	141.797	-69.1949	-154.524	159.708	-78.9013	-154.158	182.06	-79.7412	-156.371	121.299	-35.4192	-162.575	96.1566	-16.0628	-130.089	112.849	-17.8923	
198	1.65	-101.642	88.5722	-14.976	-85.7097	103.999	-26.7075	-68.0257	122.243	-30.5593	-52.3209	140.433	-33.0827	-106.847	155.705	-52.9	-101.441	178.526	-64.9658	-107.016	200.786	-76.4748	-126.822	166.461	-61.537	-123.618	187.631	-74.5102	-117.474	212.291	-86.4045	-146.536	156.138	-66.916	-144.242	177.853	-78.9471	-139.236	199.177	-86.9298	-160.986	139.868	-68.4651	-156.964	160.209	-79.0519	-154.518	182.454	-84.8184	-157.894	123.184	-36.3298	-160.93	98.3361	-16.6361	-130.243	110.857	-14.7953	
199	1.65833	-104.237	91.669	-19.4123	-85.1825	107.183	-27.563	-65.8524	127.772	-32.212	-52.7127	139.096	-34.2291	-108.922	159.368	-54.0031	-104.205	178.153	-65.8282	-104.403	202.097	-75.6724	-123.797	166.017	-58.9145	-122.467	184.282	-72.328	-120.349	209.778	-85.307	-143.702	156.866	-65.1796	-141.645	176.167	-76.6471	-140.981	202.135	-86.924	-160.156	145.746	-69.5633	-155.145	158.516	-77.245	-156.709	182.489	-83.4624	-153.29	122.062	-34.8906	-161.105	98.8279	-15.2862	-125.12	114.8	-15.1056	
200	1.66667	-102.265	92.7015	-18.1739	-83.6173	107.498	-26.0196	-64.36	126.419	-29.6932	-52.5887	141.526	-33.9483	-109.194	160.748	-53.6312	-103.169	177.776	-63.6408	-103.31	202.895	-74.3668	-128.713	162.52	-58.1535	-120.178	188.097	-71.3097	-122.471	210.616	-86.3269	-142.232	154.752	-63.5091	-143.066	174.749	-75.6325	-138.765	201.44	-86.3687	-158.73	141.514	-67.4813	-155.111	159.976	-77.8077	-156.065	185.913	-82.6979	-156.778	118.776	-32.8304	-162.432	97.4816	-14.6884	-130.726	110.66	-13.4893	
201	1.675	-102.757	94.334	-16.8267	-82.166	103.453	-23.4984	-66.6621	122.04	-27.6835	-52.6948	139.134	-34.2637	-111.533	159.09	-52.3623	-109.325	182.459	-66.554	-111.195	200.806	-76.7062	-122.755	166.99	-56.2893	-117.823	190.467	-71.2092	-116.708	213.664	-82.7521	-143.976	162.027	-65.3123	-141.219	182.17	-76.836	-137.37	207.709	-85.8552	-158.889	146.803	-67.5645	-154.26	169.221	-77.5557	-151.073	189.392	-84.1937	-156.75	125.656	-36.1369	-162.23	99.9112	-14.9787	-131.931	113.475	-11.7738	
202	1.68333	-104.433	85.1977	-15.3835	-85.9467	103.898	-24.5594	-67.775	121.473	-28.6541	-50.381	133.682	-30.3723	-106.21	154.994	-47.0989	-104.242	180.77	-61.7569	-109.318	198.263	-77.0624	-119.189	163.288	-53.7494	-112.019	188.234	-67.6568	-113.757	210.27	-81.2205	-135.633	160.122	-61.3575	-132.693	177.407	-71.859	-128.671	202.298	-82.6472	-152.751	149.845	-67.4463	-149.569	163.45	-74.5206	-146.761	188.382	-77.5494	-152.611	124.057	-33.5654	-160.525	100.595	-14.2111	-128.944	111.743	-15.4394	
203	1.69167	-103.933	87.2134	-15.0485	-81.8874	104.116	-19.0312	-66.8317	124.464	-26.2462	-57.2236	138.157	-31.6046	-110.315	156.024	-47.7874	-105.186	176.314	-59.0328	-111.76	198.807	-72.6888	-123.425	162.723	-53.0943	-116.692	185.65	-66.891	-113.566	209.408	-80.7933	-142.338	159.534	-61.396	-134.934	181.641	-73.4247	-133.955	205.873	-83.5627	-156.553	145.358	-64.8927	-149.452	165.198	-74.652	-145.844	185.182	-78.2025	-157.365	122.339	-32.57	-166.076	95.7063	-15.2426	-127.031	107.903	-13.9865	
204	1.7	-105.922	87.5306	-15.4214	-84.5322	102.201	-23.3127	-69.9125	117.533	-28.5712	-52.0213	135.802	-30.5563	-107.449	157.053	-49.435	-109.91	176.065	-62.7812	-110.928	199.308	-74.6855	-128.921	159.99	-55.4881	-124.045	179.661	-67.9772	-123.802	205.159	-83.7961	-143.315	153.54	-61.7192	-141.399	175.7	-75.5618	-141.764	195.882	-85.2292	-160.416	138.517	-65.0797	-155.578	156.488	-76.2483	-155.907	179.376	-81.2635	-155.393	117.916	-28.9959	-160.961	95.2	-10.6705	-129.937	108.08	-10.2779	
205	1.70833	-102.721	85.0467	-11.8621	-85.479	96.2849	-19.8774	-69.728	119.851	-27.3712	-53.2437	131.77	-27.6301	-108.483	149.627	-46.619	-102.023	173.573	-60.0905	-105.921	194.553	-73.1074	-125.352	157.072	-53.1997	-124.776	177.786	-67.9887	-121.272	204.029	-83.3084	-146.516	153.921	-62.3716	-143.842	172.752	-74.2277	-138.116	192.386	-82.6445	-157.757	139.566	-63.4526	-156.168	154.403	-74.0789	-153.278	175.523	-75.3998	-156.481	116.308	-26.7665	-166.209	91.9023	-11.0844	-132.09	104.882	-10.0675	
206	1.71667	-102.988	85.7035	-15.3006	-84.957	97.4834	-22.4797	-68.6971	117.37	-26.7211	-49.5547	134.768	-26.5423	-111.423	149.945	-50.8817	-104.71	174.223	-63.3098	-107.236	195.573	-72.5883	-124.992	157.423	-56.4636	-126.127	178.272	-70.5919	-120.505	202.377	-83.1767	-147.832	149.979	-62.6137	-143.743	170.2	-74.5876	-143.331	194.85	-87.4994	-161.389	134.057	-64.394	-156.161	153.504	-75.3055	-152.993	178.772	-78.0903	-154.804	115.993	-27.708	-164.196	91.0913	-8.69839	-126.859	106.057	-13.4456	
207	1.725	-107.193	77.5427	-13.2178	-86.4338	90.753	-20.5615	-69.7315	112.884	-25.069	-53.1446	124.18	-24.7828	-110.587	145.909	-49.5212	-105.35	165.818	-61.3089	-108.136	187.325	-72.625	-128.194	152.19	-56.425	-125.873	171.552	-69.2332	-123.075	197.892	-83.3791	-144.311	145.644	-61.5445	-147.862	163.491	-74.5187	-141.827	186.2	-85.38	-164.977	132.873	-65.2165	-160.817	149.199	-74.6683	-157.792	173.324	-81.4494	-157.309	108.884	-26.9125	-164.817	88.8016	-8.56803	-131.597	96.8877	-10.4136	
208	1.73333	-110.308	75.9231	-12.3785	-89.9359	87.0665	-18.2493	-69.6466	108.562	-23.0674	-55.8886	122.902	-28.7354	-108.608	138.99	-50.0291	-105.804	160.692	-63.9496	-103.624	184.99	-76.6705	-128.912	146.234	-57.2183	-125.304	171.38	-72.1627	-119.774	193.134	-83.256	-144.965	145.638	-64.7101	-145.129	160.007	-75.0711	-138.98	188.204	-85.2343	-160.054	130.424	-64.2633	-161.288	147.741	-72.9074	-154.919	171.724	-74.2449	-159.501	108.701	-29.2301	-168.089	90.2358	-12.4888	-133.419	99.7546	-12.4784	
209	1.74167	-111.396	68.3979	-12.4405	-90.1695	84.3122	-20.6599	-73.8267	101.34	-25.6525	-57.6865	114.572	-27.4966	-111.88	137.481	-48.7007	-109.062	159.255	-64.2292	-113.308	176.221	-74.6632	-128.383	142.828	-55.3056	-126.638	166.265	-71.7233	-121.062	190.133	-86.0527	-144.328	140.107	-62.0918	-139.783	159.27	-75.8673	-138.044	182.538	-87.2372	-163.417	123.122	-64.1129	-158.193	145.833	-75.4121	-152.377	167.497	-77.9535	-160.117	102.538	-28.5199	-169.099	80.1816	-9.13249	-137.57	89.6221	-9.90667	
210	1.75	-113.939	62.0716	-10.9803	-94.645	74.0552	-20.1334	-75.9599	98.2802	-28.8168	-61.5192	109.697	-31.6547	-115.352	127.108	-47.7123	-110.309	149.281	-63.1644	-112.35	171.551	-77.2362	-135.374	135.498	-56.1574	-129.352	157.539	-71.3706	-122.198	181.593	-85.2118	-150.25	128.789	-60.3659	-146.212	148.421	-73.1042	-142.785	173.843	-87.1207	-168.567	116.867	-63.6706	-165.004	136.689	-74.7809	-158.838	160.248	-81.8606	-165.81	94.5124	-27.3203	-169.245	76.5131	-10.137	-141.219	84.6452	-7.84558	
211	1.75833	-112.94	60.1855	-12.3231	-93.8093	69.4582	-22.7045	-76.9402	89.8985	-29.8279	-57.7597	103.242	-30.9018	-110.79	126.095	-48.2058	-105.79	147.147	-62.8511	-110.542	165.359	-76.4643	-132.07	132.441	-57.2922	-126.857	148.895	-70.5505	-124.499	178.043	-88.7196	-151.202	125.785	-63.1884	-144.412	141.942	-74.358	-141.069	166.766	-87.0352	-168.776	112.631	-63.659	-161.951	131.455	-75.9007	-155.178	153.062	-81.5854	-163.563	89.6064	-24.2231	-171.929	67.0253	-8.253	-136.895	82.1316	-10.5046	
212	1.76667	-116.587	58.1899	-13.4855	-94.9837	66.527	-20.4942	-76.9764	85.333	-29.2981	-61.176	102.607	-36.1031	-110.412	121.006	-50.8535	-106.623	143.981	-66.3839	-104.015	162.574	-75.3098	-132.378	127.683	-58.4691	-123.193	149.616	-71.5273	-119.372	175.947	-87.8902	-146.668	127.288	-64.8264	-143.325	142.002	-76.6492	-137.976	166.541	-87.7249	-163.892	113.594	-64.9632	-159.38	129.397	-75.309	-154.475	152.193	-82.8296	-161.408	90.5121	-30.8375	-169.799	73.3037	-10.8064	-137.437	81.6946	-11.7374	
213	1.775	-116.369	55.3071	-14.8565	-95.2074	67.1844	-26.9644	-72.7729	82.3503	-30.7101	-58.3128	91.8952	-34.2225	-108.176	121.509	-52.5423	-105.384	138.593	-66.2605	-106.4	162.858	-80.3894	-131.281	127.006	-60.2959	-123.996	144.937	-73.532	-120.255	173.608	-90.8493	-148.129	124.847	-68.3405	-142.566	142.174	-78.9845	-137.226	165.946	-91.5744	-164.399	111.616	-67.5591	-159.93	125.588	-76.3078	-156.263	148.748	-77.2404	-165.737	90.8318	-32.6072	-173.231	71.0028	-14.4652	-135.766	81.1643	-11.1962	
214	1.78333	-108.531	51.8554	-14.8917	-87.7045	66.968	-24.8529	-68.9828	82.8681	-30.4156	-52.471	95.4876	-35.2989	-109.333	113.174	-56.7322	-105.018	135.608	-71.4093	-104.603	155.292	-82.51	-128.301	125.294	-62.1811	-125.481	145.813	-78.5366	-122.081	169.607	-93.5044	-146.53	117.772	-65.7031	-147.475	138.191	-78.9502	-143.541	162.022	-91.5997	-166.028	106.546	-64.7212	-157.325	126.205	-76.5427	-158.318	147.28	-83.5132	-158.976	85.0416	-28.2733	-166.689	67.7971	-11.7159	-134.344	75.4641	-12.9846	
215	1.79167	-106.671	54.547	-16.7333	-87.6502	62.7545	-25.2884	-70.1003	83.0523	-34.7038	-54.7646	92.5343	-38.3619	-110.187	118.219	-59.7367	-106.992	136.242	-72.2519	-108.497	159.15	-85.1823	-128.327	122.657	-62.0406	-130.557	144.826	-79.1983	-124.269	169.626	-95.187	-149.251	120.05	-67.1918	-145.204	139.759	-82.3617	-143.442	159.099	-93.4376	-166.59	104.729	-65.454	-162.169	123.927	-78.5862	-160.918	145.084	-88.2547	-162.944	86.6274	-29.72	-167.417	67.3732	-8.1035	-134.382	77.4729	-17.5592	
